# xmcd
#
# Track frame offsets:
#	150
#	18681
#	38125
#	53683
#	69861
#	88227
#	115017
#	128027
#	153301
#	171050
#	196234
#	216753
#	235035
#
# Disc length: 3473 seconds
#
# Revision: 2
# Processed by: cddbd v1.5.2PL0 Copyright (c) Steve Scherf et al.
# Submitted via: audiograbber 1.83.01
#
DISCID=a40d8f0d
DTITLE=Robert Plant and Alison Krauss - Raising Sand
DYEAR=2007
DGENRE=Country
TTITLE0=Rich Woman
TTITLE1=Killing The Blues
TTITLE2=Sister Rosetta Goes Before Us
TTITLE3=Polly Come Home
TTITLE4=Gone Gone Gone (Done Moved On)
TTITLE5=Through The Morning, Through The Night
TTITLE6=Please Read The Letter
TTITLE7=Trampled Rose
TTITLE8=Fortune Teller
TTITLE9=Stick With Me, Baby
TTITLE10=Nothin'
TTITLE11=Let Your Loss Be Your Lesson
TTITLE12=Your Long Jouney
EXTD=
EXTT0=
EXTT1=
EXTT2=
EXTT3=
EXTT4=
EXTT5=
EXTT6=
EXTT7=
EXTT8=
EXTT9=
EXTT10=
EXTT11=
EXTT12=
PLAYORDER=
